<?xml version="1.0" encoding="UTF-8" standalone="no"?><!DOCTYPE svg PUBLIC "-//W3C//DTD SVG 1.1//EN"
    "http://www.w3.org/Graphics/SVG/1.1/DTD/svg11.dtd">
<svg width="100%" height="100%" viewBox="0 0 245 47" version="1.1" xmlns="http://www.w3.org/2000/svg" xml:space="preserve" style="fill-rule:evenodd;clip-rule:evenodd;stroke-linejoin:round;stroke-miterlimit:2;">
    <g id="Vrstva_2">
        <g id="Layer_1">
            <path
                d="M8.7,0L24.1,0L24.2,0.1L24.2,6.3L24.1,6.4L9.8,6.4C8.2,6.4 7.2,6.9 6.7,8C6.507,8.371 6.404,8.782 6.4,9.2C6.39,10.506 7.318,11.646 8.6,11.9C8.805,11.884 9.011,11.919 9.2,12L16.9,12C21.396,11.885 25.601,14.277 27.8,18.2C28.689,19.796 29.202,21.575 29.3,23.4L29.3,24.8C29.156,27.747 27.906,30.534 25.8,32.6C23.2,34.9 20.6,36.1 18,36.1L0.1,36.1L0,36L0,29.7L0.1,29.6L17.1,29.6C19.7,29.6 21.6,28.3 22.7,25.6C22.822,25.075 22.889,24.539 22.9,24C22.954,21.788 21.64,19.757 19.6,18.9C18.8,18.487 17.897,18.313 17,18.4L9.1,18.4C6.017,18.395 3.144,16.808 1.5,14.2C0.604,12.832 0.118,11.235 0.1,9.6L0.1,8.7C0.17,6.54 1.023,4.478 2.5,2.9C4.084,1.129 6.325,0.081 8.7,0Z"
                style="fill:rgb(44,60,69);fill-rule:nonzero;" />
            <path
                d="M43,11.9L43.9,11.9C47.093,11.998 50.119,13.366 52.3,15.7C54.455,13.33 57.497,11.954 60.7,11.9L61.6,11.9C64.793,11.998 67.819,13.366 70,15.7C71.313,17.162 72.271,18.908 72.8,20.8C72.99,21.623 73.123,22.459 73.2,23.3L73.2,35.9L73.1,36L66.9,36L66.8,35.9L66.8,24C66.888,21.474 65.23,19.194 62.8,18.5C62.376,18.385 61.939,18.318 61.5,18.3L60.7,18.3C58.9,18.3 57.3,19.3 56,21.2C55.557,22.139 55.319,23.162 55.3,24.2L55.3,35.9L55.2,36L49.1,36L49,35.9L49,23.8C48.984,21.713 47.779,19.809 45.9,18.9C45.181,18.549 44.399,18.345 43.6,18.3L43.1,18.3C41.2,18.3 39.7,19.3 38.4,21.3C37.818,22.477 37.576,23.793 37.7,25.1L37.7,35.9L37.6,36L31.4,36L31.3,35.9L31.3,23.5C31.3,20.3 32.7,17.4 35.5,14.7C37.617,12.956 40.258,11.97 43,11.9Z"
                style="fill:rgb(44,60,69);fill-rule:nonzero;" />
            <path
                d="M87,12.11L87.87,12.11C94.257,12.281 99.433,17.551 99.49,23.94L99.49,36L99.42,36.1L93.2,36.1L93.1,36L93.1,34.7C91.392,35.6 89.49,36.07 87.56,36.07L87.34,36.07C80.984,35.984 75.742,30.862 75.51,24.51L75.51,23.64C75.51,20.647 76.797,17.837 79.37,15.21C81.463,13.302 84.169,12.202 87,12.11ZM87.15,18.5C85.29,18.5 83.74,19.5 82.48,21.5C82.068,22.317 81.839,23.215 81.81,24.13C81.807,26.315 83.084,28.309 85.07,29.22C85.767,29.552 86.528,29.729 87.3,29.74L87.57,29.74C89.641,29.743 91.539,28.555 92.44,26.69C92.843,25.94 93.056,25.102 93.06,24.25L93.06,23.98C93.025,21.065 90.683,18.656 87.77,18.54L87.15,18.5Z"
                style="fill:rgb(44,60,69);fill-rule:nonzero;" />
            <path
                d="M113.7,11.5L121.2,11.5L121.3,11.6L121.3,17.9L121.2,18L115.2,18C112.9,18 111.3,18.5 110.5,19.4C109.871,19.92 109.359,20.567 109,21.3C108.525,22.403 108.32,23.602 108.4,24.8L108.4,35.9L108.3,36L102.1,36L102,35.9L102,23.3C102,20.3 103.3,17.4 105.9,14.7C108.05,12.763 110.809,11.631 113.7,11.5Z"
                style="fill:rgb(44,60,69);fill-rule:nonzero;" />
            <path
                d="M123.6,0L129.7,0L129.8,0.1L129.8,12L137.3,12L137.4,12.1L137.4,18.3L137.3,18.4L129.8,18.4L129.8,23C129.8,25 130.1,26.4 130.8,27.2C131.95,28.859 133.884,29.807 135.9,29.7L137.3,29.7L137.4,29.8L137.4,35.9L137.3,36L135,36C132.03,35.919 129.201,34.701 127.1,32.6C124.865,30.45 123.57,27.5 123.5,24.4L123.6,0Z"
                style="fill:rgb(44,60,69);fill-rule:nonzero;" />
            <path
                d="M167.8,12L173.9,12L174,12.1L174,23C174,25.1 174.4,26.6 175.2,27.4C176.232,28.725 177.821,29.5 179.5,29.5L179.8,29.5C182,29.5 183.7,28.4 184.9,26.1C185.129,25.422 185.264,24.715 185.3,24L185.3,12L185.4,11.9L191.6,11.9L191.7,12L191.7,23.9C191.7,28.1 189.8,31.5 186,34.1C184.166,35.238 182.058,35.86 179.9,35.9L179.6,35.9C175.832,35.892 172.291,34.065 170.1,31C168.696,29.077 167.895,26.779 167.8,24.4L167.8,12Z"
                style="fill:rgb(64,136,230);fill-rule:nonzero;" />
            <path
                d="M205.8,10.4L206.7,10.4C213.071,10.576 218.233,15.827 218.3,22.2L218.3,22.4C218.304,26.427 216.269,30.194 212.9,32.4C210.952,33.716 208.651,34.413 206.3,34.4L206.1,34.4C204.18,34.387 202.292,33.906 200.6,33L200.6,46.3L200.5,46.4L194.3,46.4L194.2,46.3L194.2,22C194.2,19 195.5,16.2 198.1,13.6C200.177,11.612 202.925,10.47 205.8,10.4ZM206.7,16.8L206,16.8C204.1,16.8 202.6,17.8 201.3,19.8C200.904,20.65 200.666,21.565 200.6,22.5C200.6,24.698 201.895,26.7 203.9,27.6C204.626,27.919 205.408,28.089 206.2,28.1L206.5,28.1C208.594,28.111 210.512,26.897 211.4,25C211.785,24.258 211.991,23.436 212,22.6L212,22.3C211.984,20.213 210.779,18.309 208.9,17.4C208.195,17.108 207.456,16.906 206.7,16.8Z"
                style="fill:rgb(64,136,230);fill-rule:nonzero;" />
            <path
                d="M232.2,10.4L233.1,10.4C239.471,10.576 244.633,15.827 244.7,22.2L244.7,22.4C244.704,26.427 242.669,30.194 239.3,32.4C237.352,33.716 235.051,34.413 232.7,34.4L232.5,34.4C230.58,34.387 228.692,33.906 227,33L227,46.3L226.9,46.4L220.7,46.4L220.6,46.3L220.6,22C220.6,19 221.9,16.2 224.5,13.6C226.577,11.612 229.325,10.47 232.2,10.4ZM233.1,16.8L232.4,16.8C230.5,16.8 229,17.8 227.7,19.8C227.304,20.65 227.066,21.565 227,22.5C227,24.698 228.295,26.7 230.3,27.6C231.026,27.919 231.808,28.089 232.6,28.1L232.9,28.1C234.994,28.111 236.912,26.897 237.8,25C238.185,24.258 238.391,23.436 238.4,22.6L238.4,22.3C238.384,20.213 237.179,18.309 235.3,17.4C234.595,17.108 233.856,16.906 233.1,16.8Z"
                style="fill:rgb(64,136,230);fill-rule:nonzero;" />
            <path
                d="M206.3,14.1C210.634,14.1 214.2,17.666 214.2,22C214.2,26.334 210.634,29.9 206.3,29.9C201.966,29.9 198.4,26.334 198.4,22C198.4,21.983 198.4,21.967 198.4,21.95C198.4,17.643 201.943,14.1 206.25,14.1C206.267,14.1 206.283,14.1 206.3,14.1Z"
                style="fill:white;fill-rule:nonzero;" />
            <path
                d="M206,16.9C205.453,16.903 204.911,17.004 204.4,17.2C205.231,17.366 205.835,18.103 205.835,18.95C205.835,19.929 205.029,20.735 204.05,20.735C203.932,20.735 203.815,20.723 203.7,20.7C203.014,20.592 202.458,20.077 202.3,19.4C202.141,19.832 202.059,20.288 202.059,20.748C202.059,22.882 203.815,24.638 205.949,24.638C208.083,24.638 209.839,22.882 209.839,20.748C209.839,19.124 208.823,17.664 207.3,17.1C206.877,16.977 206.44,16.91 206,16.9Z"
                style="fill:rgb(44,60,69);fill-rule:nonzero;" />
            <path
                d="M232.4,14.1C236.734,14.1 240.3,17.666 240.3,22C240.3,26.334 236.734,29.9 232.4,29.9C228.066,29.9 224.5,26.334 224.5,22C224.5,21.983 224.5,21.967 224.5,21.95C224.5,17.643 228.043,14.1 232.35,14.1C232.367,14.1 232.383,14.1 232.4,14.1Z"
                style="fill:white;fill-rule:nonzero;" />
            <path
                d="M232.2,16.9C231.653,16.903 231.111,17.004 230.6,17.2C231.431,17.366 232.035,18.103 232.035,18.95C232.035,19.929 231.229,20.735 230.25,20.735C230.132,20.735 230.015,20.723 229.9,20.7C229.214,20.592 228.658,20.077 228.5,19.4C228.341,19.832 228.259,20.288 228.259,20.748C228.259,22.882 230.015,24.638 232.149,24.638C234.283,24.638 236.039,22.882 236.039,20.748C236.039,19.124 235.023,17.664 233.5,17.1C233.076,16.985 232.639,16.918 232.2,16.9Z"
                style="fill:rgb(44,60,69);fill-rule:nonzero;" />
            <path
                d="M148.8,17.7L162.4,17.7L162.4,11.9L148.8,11.9C144.74,11.9 141.4,15.24 141.4,19.3C141.4,23.36 144.74,26.7 148.8,26.7L157.8,26.7C158.678,26.7 159.4,27.422 159.4,28.3C159.4,29.178 158.678,29.9 157.8,29.9L141.4,29.9L141.4,35.7L157.8,35.7C157.817,35.7 157.833,35.7 157.85,35.7C161.882,35.7 165.2,32.382 165.2,28.35C165.2,24.337 161.913,21.027 157.9,21L148.9,21C148.893,21 148.887,21 148.88,21C148.013,21 147.3,20.287 147.3,19.42C147.3,19.413 147.3,19.407 147.3,19.4C147.289,19.327 147.283,19.253 147.283,19.18C147.283,18.368 147.952,17.7 148.763,17.7C148.776,17.7 148.788,17.7 148.8,17.7Z"
                style="fill:rgb(64,136,230);fill-rule:nonzero;" />
        </g>
    </g>
</svg>
